<svg width="30" height="24" viewBox="0 0 30 24" fill="none" xmlns="http://www.w3.org/2000/svg">
<path d="M18.9893 0.989349C16.9006 0.989349 14.8677 1.57709 13.1104 2.68901C11.4014 3.77029 10.0232 5.2976 9.12451 7.10577L10.8393 7.95803C12.3886 4.84071 15.5115 2.90424 18.9893 2.90424C24.0047 2.90424 28.085 6.98456 28.085 12C28.085 17.0154 24.0047 21.0957 18.9893 21.0957C15.5115 21.0957 12.3886 19.1593 10.8393 16.0419L9.12451 16.8942C10.0232 18.7024 11.4014 20.2297 13.1104 21.311C14.8677 22.4229 16.9006 23.0106 18.9893 23.0106C25.0606 23.0106 29.9999 18.0713 29.9999 12C29.9999 5.92869 25.0606 0.989349 18.9893 0.989349Z" fill="white"/>
<path d="M14.4826 15.1528L15.8366 16.5067L20.3434 11.9999L15.8366 7.49316L14.4826 8.84712L16.6779 11.0425H0V12.9574H16.6779L14.4826 15.1528Z" fill="white"/>
</svg>
